<?xml version="1.0" encoding="UTF-8" standalone="no"?>
<!DOCTYPE svg PUBLIC "-//W3C//DTD SVG 1.1//EN"
 "http://www.w3.org/Graphics/SVG/1.1/DTD/svg11.dtd">
<!-- Generated by graphviz version 2.26.3 (20100126.1600)
 -->
<!-- Title: unix Pages: 1 -->
<svg xmlns="http://www.w3.org/2000/svg" xmlns:xlink="http://www.w3.org/1999/xlink" style="width:100%;height:100%;position:absolute;top:0;left:0;">
<g id="graph1" class="graph" transform="scale(1 1) rotate(0) translate(4 422)">
<title>unix</title>
<polygon fill="#ffffff" stroke="#ffffff" points="-4,5 -4,-422 601,-422 601,5 -4,5"/>
<!-- cl15 -->
<g id="node1" class="node"><title>cl15</title>
<polygon fill="#fefece" stroke="#a80036" points="128,-400 4.26326e-14,-400 7.10543e-15,-352 128,-352 128,-400"/>
<polygon fill="#fefece" stroke="#fefece" points="0,-352 0,-400 128,-400 128,-352 0,-352"/>
<polygon fill="none" stroke="#a80036" points="0,-372 0,-400 128,-400 128,-372 0,-372"/>
<svg x="5.0" y="-395.0"><g transform="translate(0 0) scale(0.7777777777777778 0.7777777777777778)"><ellipse cx="11.0" cy="11.0" fill="#ADD1B2" rx="11.0" ry="11.0" style="stroke: #A80036; stroke-width: 1.0;"/><path d="M15.5938,5.4844 L15.5938,9.3906 L15.2813,9.3906 Q14.9063,7.8594 13.9141,7.0469 Q12.9219,6.2344 11.6563,6.2344 Q10.5938,6.2344 9.7188,6.8438 Q8.8438,7.4531 8.4375,8.4219 Q7.9063,9.6719 7.9063,11.2188 Q7.9063,12.7188 8.2891,13.9609 Q8.6719,15.2031 9.4844,15.8438 Q10.2969,16.4844 11.5938,16.4844 Q12.6563,16.4844 13.5391,16.0156 Q14.4219,15.5469 15.4063,14.4063 L15.4063,15.375 Q14.4531,16.375 13.4297,16.8125 Q12.4063,17.25 11.0469,17.25 Q9.2344,17.25 7.8359,16.5313 Q6.4375,15.8125 5.6797,14.4609 Q4.9219,13.1094 4.9219,11.5781 Q4.9219,9.9688 5.7656,8.5234 Q6.6094,7.0781 8.0391,6.2813 Q9.4688,5.4844 11.0781,5.4844 Q12.2656,5.4844 13.5938,6 Q14.3594,6.2969 14.5625,6.2969 Q14.8281,6.2969 15.0234,6.1016 Q15.2188,5.9063 15.2813,5.4844 L15.5938,5.4844 Z "/></g></svg>
<text text-anchor="start" x="26" y="-383.2" font-family="Times New Roman" font-size="12.00" fill="#000000">BackendService </text>
<polygon fill="none" stroke="#a80036" points="0,-362 0,-372 128,-372 128,-362 0,-362"/>
<polygon fill="none" stroke="#a80036" points="0,-352 0,-362 128,-362 128,-352 0,-352"/>
</g>
<!-- cl17 -->
<g id="node8" class="node"><title>cl17</title>
<polygon fill="#fefece" stroke="#a80036" points="373,-400 153,-400 153,-352 373,-352 373,-400"/>
<polygon fill="#fefece" stroke="#fefece" points="153,-352 153,-400 373,-400 373,-352 153,-352"/>
<polygon fill="none" stroke="#a80036" points="153,-372 153,-400 373,-400 373,-372 153,-372"/>
<svg x="158.0" y="-395.0"><g transform="translate(0 0) scale(0.7777777777777778 0.7777777777777778)"><ellipse cx="11.0" cy="11.0" fill="#ADD1B2" rx="11.0" ry="11.0" style="stroke: #A80036; stroke-width: 1.0;"/><path d="M15.5938,5.4844 L15.5938,9.3906 L15.2813,9.3906 Q14.9063,7.8594 13.9141,7.0469 Q12.9219,6.2344 11.6563,6.2344 Q10.5938,6.2344 9.7188,6.8438 Q8.8438,7.4531 8.4375,8.4219 Q7.9063,9.6719 7.9063,11.2188 Q7.9063,12.7188 8.2891,13.9609 Q8.6719,15.2031 9.4844,15.8438 Q10.2969,16.4844 11.5938,16.4844 Q12.6563,16.4844 13.5391,16.0156 Q14.4219,15.5469 15.4063,14.4063 L15.4063,15.375 Q14.4531,16.375 13.4297,16.8125 Q12.4063,17.25 11.0469,17.25 Q9.2344,17.25 7.8359,16.5313 Q6.4375,15.8125 5.6797,14.4609 Q4.9219,13.1094 4.9219,11.5781 Q4.9219,9.9688 5.7656,8.5234 Q6.6094,7.0781 8.0391,6.2813 Q9.4688,5.4844 11.0781,5.4844 Q12.2656,5.4844 13.5938,6 Q14.3594,6.2969 14.5625,6.2969 Q14.8281,6.2969 15.0234,6.1016 Q15.2188,5.9063 15.2813,5.4844 L15.5938,5.4844 Z "/></g></svg>
<text text-anchor="start" x="179" y="-383.2" font-family="Times New Roman" font-size="12.00" fill="#000000">PubSubResourceFromBackend &#160;</text>
<polygon fill="none" stroke="#a80036" points="153,-362 153,-372 373,-372 373,-362 153,-362"/>
<polygon fill="none" stroke="#a80036" points="153,-352 153,-362 373,-362 373,-352 153,-352"/>
</g>
<!-- cl15&#45;&gt;cl17 -->
<g id="edge16" class="edge"><title>cl15&#45;&gt;cl17</title>
<path fill="none" stroke="#a80036" d="M128.131,-376C132.258,-376 136.385,-376 140.511,-376"/>
<polygon fill="#a80036" stroke="#a80036" points="140.892,-376 146.892,-372 152.892,-376 146.892,-380 140.892,-376"/>
<text text-anchor="start" x="140.038" y="-381.351" font-family="Times New Roman" font-size="10.00" fill="#000000">1</text>
</g>
<!-- cl13 -->
<g id="node10" class="node"><title>cl13</title>
<polygon fill="#fefece" stroke="#a80036" points="139,-268 59,-268 59,-220 139,-220 139,-268"/>
<polygon fill="#fefece" stroke="#fefece" points="58.5,-220 58.5,-268 139.5,-268 139.5,-220 58.5,-220"/>
<polygon fill="none" stroke="#a80036" points="59,-240 59,-268 140,-268 140,-240 59,-240"/>
<svg x="64.0" y="-263.0"><g transform="translate(0 0) scale(0.7777777777777778 0.7777777777777778)"><ellipse cx="11.0" cy="11.0" fill="#ADD1B2" rx="11.0" ry="11.0" style="stroke: #A80036; stroke-width: 1.0;"/><path d="M15.5938,5.4844 L15.5938,9.3906 L15.2813,9.3906 Q14.9063,7.8594 13.9141,7.0469 Q12.9219,6.2344 11.6563,6.2344 Q10.5938,6.2344 9.7188,6.8438 Q8.8438,7.4531 8.4375,8.4219 Q7.9063,9.6719 7.9063,11.2188 Q7.9063,12.7188 8.2891,13.9609 Q8.6719,15.2031 9.4844,15.8438 Q10.2969,16.4844 11.5938,16.4844 Q12.6563,16.4844 13.5391,16.0156 Q14.4219,15.5469 15.4063,14.4063 L15.4063,15.375 Q14.4531,16.375 13.4297,16.8125 Q12.4063,17.25 11.0469,17.25 Q9.2344,17.25 7.8359,16.5313 Q6.4375,15.8125 5.6797,14.4609 Q4.9219,13.1094 4.9219,11.5781 Q4.9219,9.9688 5.7656,8.5234 Q6.6094,7.0781 8.0391,6.2813 Q9.4688,5.4844 11.0781,5.4844 Q12.2656,5.4844 13.5938,6 Q14.3594,6.2969 14.5625,6.2969 Q14.8281,6.2969 15.0234,6.1016 Q15.2188,5.9063 15.2813,5.4844 L15.5938,5.4844 Z "/></g></svg>
<text text-anchor="start" x="85" y="-251.2" font-family="Times New Roman" font-size="12.00" fill="#000000">Storage </text>
<polygon fill="none" stroke="#a80036" points="59,-230 59,-240 140,-240 140,-230 59,-230"/>
<polygon fill="none" stroke="#a80036" points="59,-220 59,-230 140,-230 140,-220 59,-220"/>
</g>
<!-- cl15&#45;&gt;cl13 -->
<g id="edge14" class="edge"><title>cl15&#45;&gt;cl13</title>
<path fill="none" stroke="#a80036" d="M73.5103,-340.133C79.579,-317.245 87.28,-288.201 92.6212,-268.057"/>
<polygon fill="none" stroke="#a80036" points="73.4952,-340.19 75.8237,-347.015 70.4195,-351.789 68.091,-344.964 73.4952,-340.19"/>
<text text-anchor="start" x="78.2278" y="-279.275" font-family="Times New Roman" font-size="10.00" fill="#000000">1</text>
</g>
<!-- cl9 -->
<g id="node2" class="node"><title>cl9</title>
<polygon fill="#fefece" stroke="#a80036" points="507,-154 407,-154 407,-106 507,-106 507,-154"/>
<polygon fill="#fefece" stroke="#fefece" points="406.5,-106 406.5,-154 507.5,-154 507.5,-106 406.5,-106"/>
<polygon fill="none" stroke="#a80036" points="407,-126 407,-154 508,-154 508,-126 407,-126"/>
<svg x="412.0" y="-149.0"><g transform="translate(0 0) scale(0.7777777777777778 0.7777777777777778)"><ellipse cx="11.0" cy="11.0" fill="#ADD1B2" rx="11.0" ry="11.0" style="stroke: #A80036; stroke-width: 1.0;"/><path d="M15.5938,5.4844 L15.5938,9.3906 L15.2813,9.3906 Q14.9063,7.8594 13.9141,7.0469 Q12.9219,6.2344 11.6563,6.2344 Q10.5938,6.2344 9.7188,6.8438 Q8.8438,7.4531 8.4375,8.4219 Q7.9063,9.6719 7.9063,11.2188 Q7.9063,12.7188 8.2891,13.9609 Q8.6719,15.2031 9.4844,15.8438 Q10.2969,16.4844 11.5938,16.4844 Q12.6563,16.4844 13.5391,16.0156 Q14.4219,15.5469 15.4063,14.4063 L15.4063,15.375 Q14.4531,16.375 13.4297,16.8125 Q12.4063,17.25 11.0469,17.25 Q9.2344,17.25 7.8359,16.5313 Q6.4375,15.8125 5.6797,14.4609 Q4.9219,13.1094 4.9219,11.5781 Q4.9219,9.9688 5.7656,8.5234 Q6.6094,7.0781 8.0391,6.2813 Q9.4688,5.4844 11.0781,5.4844 Q12.2656,5.4844 13.5938,6 Q14.3594,6.2969 14.5625,6.2969 Q14.8281,6.2969 15.0234,6.1016 Q15.2188,5.9063 15.2813,5.4844 L15.5938,5.4844 Z "/></g></svg>
<text text-anchor="start" x="433" y="-137.2" font-family="Times New Roman" font-size="12.00" fill="#000000">Changeset &#160;</text>
<polygon fill="none" stroke="#a80036" points="407,-116 407,-126 508,-126 508,-116 407,-116"/>
<polygon fill="none" stroke="#a80036" points="407,-106 407,-116 508,-116 508,-106 407,-106"/>
</g>
<!-- cl8 -->
<g id="node3" class="node"><title>cl8</title>
<polygon fill="#fefece" stroke="#a80036" points="455,-48 325,-48 325,-1.42109e-14 455,-0 455,-48"/>
<polygon fill="#fefece" stroke="#fefece" points="325,-0 325,-48 455,-48 455,-0 325,-0"/>
<polygon fill="none" stroke="#a80036" points="325,-20 325,-48 455,-48 455,-20 325,-20"/>
<svg x="330.0" y="-43.0"><g transform="translate(0 0) scale(0.7777777777777778 0.7777777777777778)"><ellipse cx="11.0" cy="11.0" fill="#ADD1B2" rx="11.0" ry="11.0" style="stroke: #A80036; stroke-width: 1.0;"/><path d="M15.5938,5.4844 L15.5938,9.3906 L15.2813,9.3906 Q14.9063,7.8594 13.9141,7.0469 Q12.9219,6.2344 11.6563,6.2344 Q10.5938,6.2344 9.7188,6.8438 Q8.8438,7.4531 8.4375,8.4219 Q7.9063,9.6719 7.9063,11.2188 Q7.9063,12.7188 8.2891,13.9609 Q8.6719,15.2031 9.4844,15.8438 Q10.2969,16.4844 11.5938,16.4844 Q12.6563,16.4844 13.5391,16.0156 Q14.4219,15.5469 15.4063,14.4063 L15.4063,15.375 Q14.4531,16.375 13.4297,16.8125 Q12.4063,17.25 11.0469,17.25 Q9.2344,17.25 7.8359,16.5313 Q6.4375,15.8125 5.6797,14.4609 Q4.9219,13.1094 4.9219,11.5781 Q4.9219,9.9688 5.7656,8.5234 Q6.6094,7.0781 8.0391,6.2813 Q9.4688,5.4844 11.0781,5.4844 Q12.2656,5.4844 13.5938,6 Q14.3594,6.2969 14.5625,6.2969 Q14.8281,6.2969 15.0234,6.1016 Q15.2188,5.9063 15.2813,5.4844 L15.5938,5.4844 Z "/></g></svg>
<text text-anchor="start" x="351" y="-31.2" font-family="Times New Roman" font-size="12.00" fill="#000000">ChangesetStack </text>
<polygon fill="none" stroke="#a80036" points="325,-10 325,-20 455,-20 455,-10 325,-10"/>
<polygon fill="none" stroke="#a80036" points="325,-0 325,-10 455,-10 455,-0 325,-0"/>
</g>
<!-- cl9&#45;&gt;cl8 -->
<g id="edge8" class="edge"><title>cl9&#45;&gt;cl8</title>
<path fill="none" stroke="#a80036" d="M441.797,-105.947C432.95,-91.9513 421.649,-74.071 411.861,-58.5856"/>
<polygon fill="none" stroke="#a80036" points="411.787,-58.4684 405.2,-55.5338 405.375,-48.3248 411.962,-51.2594 411.787,-58.4684"/>
<text text-anchor="start" x="436.638" y="-87.2513" font-family="Times New Roman" font-size="10.00" fill="#000000">*</text>
</g>
<!-- cl4 -->
<g id="node4" class="node"><title>cl4</title>
<polygon fill="#fefece" stroke="#a80036" points="473,-268 351,-268 351,-220 473,-220 473,-268"/>
<polygon fill="#fefece" stroke="#fefece" points="351,-220 351,-268 473,-268 473,-220 351,-220"/>
<polygon fill="none" stroke="#a80036" points="351,-240 351,-268 473,-268 473,-240 351,-240"/>
<svg x="356.0" y="-263.0"><g transform="translate(0 0) scale(0.7777777777777778 0.7777777777777778)"><ellipse cx="11.0" cy="11.0" fill="#ADD1B2" rx="11.0" ry="11.0" style="stroke: #A80036; stroke-width: 1.0;"/><path d="M15.5938,5.4844 L15.5938,9.3906 L15.2813,9.3906 Q14.9063,7.8594 13.9141,7.0469 Q12.9219,6.2344 11.6563,6.2344 Q10.5938,6.2344 9.7188,6.8438 Q8.8438,7.4531 8.4375,8.4219 Q7.9063,9.6719 7.9063,11.2188 Q7.9063,12.7188 8.2891,13.9609 Q8.6719,15.2031 9.4844,15.8438 Q10.2969,16.4844 11.5938,16.4844 Q12.6563,16.4844 13.5391,16.0156 Q14.4219,15.5469 15.4063,14.4063 L15.4063,15.375 Q14.4531,16.375 13.4297,16.8125 Q12.4063,17.25 11.0469,17.25 Q9.2344,17.25 7.8359,16.5313 Q6.4375,15.8125 5.6797,14.4609 Q4.9219,13.1094 4.9219,11.5781 Q4.9219,9.9688 5.7656,8.5234 Q6.6094,7.0781 8.0391,6.2813 Q9.4688,5.4844 11.0781,5.4844 Q12.2656,5.4844 13.5938,6 Q14.3594,6.2969 14.5625,6.2969 Q14.8281,6.2969 15.0234,6.1016 Q15.2188,5.9063 15.2813,5.4844 L15.5938,5.4844 Z "/></g></svg>
<text text-anchor="start" x="377" y="-251.2" font-family="Times New Roman" font-size="12.00" fill="#000000">CollectionNode </text>
<polygon fill="none" stroke="#a80036" points="351,-230 351,-240 473,-240 473,-230 351,-230"/>
<polygon fill="none" stroke="#a80036" points="351,-220 351,-230 473,-230 473,-220 351,-220"/>
</g>
<!-- cl6 -->
<g id="node5" class="node"><title>cl6</title>
<polygon fill="#fefece" stroke="#a80036" points="382,-154 264,-154 264,-106 382,-106 382,-154"/>
<polygon fill="#fefece" stroke="#fefece" points="263.5,-106 263.5,-154 382.5,-154 382.5,-106 263.5,-106"/>
<polygon fill="none" stroke="#a80036" points="264,-126 264,-154 383,-154 383,-126 264,-126"/>
<svg x="269.0" y="-149.0"><g transform="translate(0 0) scale(0.7777777777777778 0.7777777777777778)"><ellipse cx="11.0" cy="11.0" fill="#ADD1B2" rx="11.0" ry="11.0" style="stroke: #A80036; stroke-width: 1.0;"/><path d="M15.5938,5.4844 L15.5938,9.3906 L15.2813,9.3906 Q14.9063,7.8594 13.9141,7.0469 Q12.9219,6.2344 11.6563,6.2344 Q10.5938,6.2344 9.7188,6.8438 Q8.8438,7.4531 8.4375,8.4219 Q7.9063,9.6719 7.9063,11.2188 Q7.9063,12.7188 8.2891,13.9609 Q8.6719,15.2031 9.4844,15.8438 Q10.2969,16.4844 11.5938,16.4844 Q12.6563,16.4844 13.5391,16.0156 Q14.4219,15.5469 15.4063,14.4063 L15.4063,15.375 Q14.4531,16.375 13.4297,16.8125 Q12.4063,17.25 11.0469,17.25 Q9.2344,17.25 7.8359,16.5313 Q6.4375,15.8125 5.6797,14.4609 Q4.9219,13.1094 4.9219,11.5781 Q4.9219,9.9688 5.7656,8.5234 Q6.6094,7.0781 8.0391,6.2813 Q9.4688,5.4844 11.0781,5.4844 Q12.2656,5.4844 13.5938,6 Q14.3594,6.2969 14.5625,6.2969 Q14.8281,6.2969 15.0234,6.1016 Q15.2188,5.9063 15.2813,5.4844 L15.5938,5.4844 Z "/></g></svg>
<text text-anchor="start" x="290" y="-137.2" font-family="Times New Roman" font-size="12.00" fill="#000000">HivemindNode </text>
<polygon fill="none" stroke="#a80036" points="264,-116 264,-126 383,-126 383,-116 264,-116"/>
<polygon fill="none" stroke="#a80036" points="264,-106 264,-116 383,-116 383,-106 264,-106"/>
</g>
<!-- cl6&#45;&gt;cl8 -->
<g id="edge10" class="edge"><title>cl6&#45;&gt;cl8</title>
<path fill="none" stroke="#a80036" d="M344.671,-95.7142C354.439,-80.2601 365.747,-62.3703 374.625,-48.3248"/>
<polygon fill="#a80036" stroke="#a80036" points="344.615,-95.8034 344.79,-103.012 338.203,-105.947 338.028,-98.738 344.615,-95.8034"/>
<text text-anchor="start" x="356.82" y="-55.6765" font-family="Times New Roman" font-size="10.00" fill="#000000">1</text>
</g>
<!-- cl2 -->
<g id="node6" class="node"><title>cl2</title>
<polygon fill="#fefece" stroke="#a80036" points="596,-276 498,-276 498,-212 596,-212 596,-276"/>
<polygon fill="#fefece" stroke="#fefece" points="498,-212 498,-276 596,-276 596,-212 498,-212"/>
<polygon fill="none" stroke="#a80036" points="498,-242 498,-276 596,-276 596,-242 498,-242"/>
<svg x="504.0" y="-270.5"><g transform="translate(0 0) scale(1.0 1.0)"><ellipse cx="11.0" cy="11.0" fill="#ADD1B2" rx="11.0" ry="11.0" style="stroke: #A80036; stroke-width: 1.0;"/><path d="M15.5938,5.4844 L15.5938,9.3906 L15.2813,9.3906 Q14.9063,7.8594 13.9141,7.0469 Q12.9219,6.2344 11.6563,6.2344 Q10.5938,6.2344 9.7188,6.8438 Q8.8438,7.4531 8.4375,8.4219 Q7.9063,9.6719 7.9063,11.2188 Q7.9063,12.7188 8.2891,13.9609 Q8.6719,15.2031 9.4844,15.8438 Q10.2969,16.4844 11.5938,16.4844 Q12.6563,16.4844 13.5391,16.0156 Q14.4219,15.5469 15.4063,14.4063 L15.4063,15.375 Q14.4531,16.375 13.4297,16.8125 Q12.4063,17.25 11.0469,17.25 Q9.2344,17.25 7.8359,16.5313 Q6.4375,15.8125 5.6797,14.4609 Q4.9219,13.1094 4.9219,11.5781 Q4.9219,9.9688 5.7656,8.5234 Q6.6094,7.0781 8.0391,6.2813 Q9.4688,5.4844 11.0781,5.4844 Q12.2656,5.4844 13.5938,6 Q14.3594,6.2969 14.5625,6.2969 Q14.8281,6.2969 15.0234,6.1016 Q15.2188,5.9063 15.2813,5.4844 L15.5938,5.4844 Z "/></g></svg>
<text text-anchor="start" x="531" y="-256.2" font-family="Times New Roman" font-size="12.00" fill="#000000">LeafNode </text>
<polygon fill="none" stroke="#a80036" points="498,-222 498,-242 596,-242 596,-222 498,-222"/>
<svg x="511.0" y="-237.0"><g transform="translate(0 0) scale(1.0 1.0)"><ellipse cx="5.0" cy="5.0" fill="none" rx="3.0" ry="3.0" style="stroke: #038048; stroke-width: 1.0;"/></g></svg>
<text text-anchor="start" x="529" y="-229.667" font-family="Times New Roman" font-size="10.00" fill="#000000">items: list</text>
<polygon fill="none" stroke="#a80036" points="498,-212 498,-222 596,-222 596,-212 498,-212"/>
</g>
<!-- cl2&#45;&gt;cl6 -->
<g id="edge6" class="edge"><title>cl2&#45;&gt;cl6</title>
<path fill="none" stroke="#a80036" d="M479.81,-208.865C437.1,-186.996 399.816,-168.273 371.252,-154.005"/>
<polygon fill="none" stroke="#a80036" points="476.774,-215.175 497.764,-218.08 483.167,-202.719 476.774,-215.175"/>
</g>
<!-- cl1 -->
<g id="node7" class="node"><title>cl1</title>
<polygon fill="#fefece" stroke="#a80036" points="553,-418 445,-418 445,-334 553,-334 553,-418"/>
<polygon fill="#fefece" stroke="#fefece" points="445,-334 445,-418 553,-418 553,-334 445,-334"/>
<polygon fill="none" stroke="#a80036" points="445,-384 445,-418 553,-418 553,-384 445,-384"/>
<svg x="469.5" y="-412.5"><g transform="translate(0 0) scale(1.0 1.0)"><ellipse cx="11.0" cy="11.0" fill="#A9DCDF" rx="11.0" ry="11.0" style="stroke: #A80036; stroke-width: 1.0;"/><path d="M12.5781,12.0469 L8.5938,12.0469 L8.125,13.1406 Q7.8906,13.6875 7.8906,14.0469 Q7.8906,14.5156 8.2656,14.75 Q8.5,14.875 9.375,14.9375 L9.375,15.25 L5.6406,15.25 L5.6406,14.9375 Q6.2344,14.8438 6.625,14.4375 Q7.0156,14.0313 7.5938,12.75 L11.625,3.7656 L11.7813,3.7656 L15.8281,12.9844 Q16.4219,14.2969 16.7969,14.6406 Q17.0781,14.9063 17.5938,14.9375 L17.5938,15.25 L12.1406,15.25 L12.1406,14.9375 L12.3594,14.9375 Q13.0156,14.9375 13.2813,14.7656 Q13.4688,14.625 13.4688,14.375 Q13.4688,14.2344 13.4219,14.0781 Q13.4063,14 13.1719,13.4531 L12.5781,12.0469 Z M12.2969,11.4375 L10.6094,7.5625 L8.8906,11.4375 L12.2969,11.4375 Z "/></g></svg>
<text text-anchor="start" x="497.5" y="-398.2" font-family="Times New Roman italic" font-size="12.00" fill="#000000">Node </text>
<polygon fill="none" stroke="#a80036" points="445,-344 445,-384 553,-384 553,-344 445,-344"/>
<svg x="450.5" y="-379.0"><g transform="translate(0 0) scale(1.0 1.0)"><ellipse cx="5.0" cy="5.0" fill="none" rx="3.0" ry="3.0" style="stroke: #038048; stroke-width: 1.0;"/></g></svg>
<text text-anchor="start" x="461" y="-371.667" font-family="Times New Roman" font-size="10.00" fill="#000000">config: dict</text>
<svg x="450.5" y="-369.0"><g transform="translate(0 0) scale(1.0 1.0)"><ellipse cx="5.0" cy="5.0" fill="none" rx="3.0" ry="3.0" style="stroke: #038048; stroke-width: 1.0;"/></g></svg>
<text text-anchor="start" x="461" y="-361.667" font-family="Times New Roman" font-size="10.00" fill="#000000">subscriptions: dict</text>
<svg x="450.5" y="-359.0"><g transform="translate(0 0) scale(1.0 1.0)"><ellipse cx="5.0" cy="5.0" fill="none" rx="3.0" ry="3.0" style="stroke: #038048; stroke-width: 1.0;"/></g></svg>
<text text-anchor="start" x="461" y="-351.667" font-family="Times New Roman" font-size="10.00" fill="#000000">affiliations: dict</text>
<polygon fill="none" stroke="#a80036" points="445,-334 445,-344 553,-344 553,-334 445,-334"/>
</g>
<!-- cl1&#45;&gt;cl4 -->
<g id="edge4" class="edge"><title>cl1&#45;&gt;cl4</title>
<path fill="none" stroke="#a80036" d="M460.116,-317.004C448.74,-299.743 436.937,-281.836 427.869,-268.077"/>
<polygon fill="none" stroke="#a80036" points="454.382,-321.024 471.233,-333.871 466.072,-313.32 454.382,-321.024"/>
</g>
<!-- cl1&#45;&gt;cl2 -->
<g id="edge2" class="edge"><title>cl1&#45;&gt;cl2</title>
<path fill="none" stroke="#a80036" d="M521.272,-314.753C526.127,-301.401 531.077,-287.789 535.321,-276.117"/>
<polygon fill="none" stroke="#a80036" points="514.576,-312.683 514.319,-333.871 527.733,-317.468 514.576,-312.683"/>
</g>
<!-- cl20 -->
<g id="node9" class="node"><title>cl20</title>
<polygon fill="#fefece" stroke="#a80036" points="326,-268 200,-268 200,-220 326,-220 326,-268"/>
<polygon fill="#fefece" stroke="#fefece" points="200,-220 200,-268 326,-268 326,-220 200,-220"/>
<polygon fill="none" stroke="#a80036" points="200,-240 200,-268 326,-268 326,-240 200,-240"/>
<svg x="205.0" y="-263.0"><g transform="translate(0 0) scale(0.7777777777777778 0.7777777777777778)"><ellipse cx="11.0" cy="11.0" fill="#ADD1B2" rx="11.0" ry="11.0" style="stroke: #A80036; stroke-width: 1.0;"/><path d="M15.5938,5.4844 L15.5938,9.3906 L15.2813,9.3906 Q14.9063,7.8594 13.9141,7.0469 Q12.9219,6.2344 11.6563,6.2344 Q10.5938,6.2344 9.7188,6.8438 Q8.8438,7.4531 8.4375,8.4219 Q7.9063,9.6719 7.9063,11.2188 Q7.9063,12.7188 8.2891,13.9609 Q8.6719,15.2031 9.4844,15.8438 Q10.2969,16.4844 11.5938,16.4844 Q12.6563,16.4844 13.5391,16.0156 Q14.4219,15.5469 15.4063,14.4063 L15.4063,15.375 Q14.4531,16.375 13.4297,16.8125 Q12.4063,17.25 11.0469,17.25 Q9.2344,17.25 7.8359,16.5313 Q6.4375,15.8125 5.6797,14.4609 Q4.9219,13.1094 4.9219,11.5781 Q4.9219,9.9688 5.7656,8.5234 Q6.6094,7.0781 8.0391,6.2813 Q9.4688,5.4844 11.0781,5.4844 Q12.2656,5.4844 13.5938,6 Q14.3594,6.2969 14.5625,6.2969 Q14.8281,6.2969 15.0234,6.1016 Q15.2188,5.9063 15.2813,5.4844 L15.5938,5.4844 Z "/></g></svg>
<text text-anchor="start" x="226" y="-251.2" font-family="Times New Roman" font-size="12.00" fill="#000000">PubSubService &#160;</text>
<polygon fill="none" stroke="#a80036" points="200,-230 200,-240 326,-240 326,-230 200,-230"/>
<polygon fill="none" stroke="#a80036" points="200,-220 200,-230 326,-230 326,-220 200,-220"/>
</g>
<!-- cl17&#45;&gt;cl20 -->
<g id="edge21" class="edge"><title>cl17&#45;&gt;cl20</title>
<path fill="none" stroke="#a80036" d="M254.872,-339.816C253.441,-316.977 253.772,-288.108 255.864,-268.057"/>
<polygon fill="#a80036" stroke="#a80036" points="254.873,-339.829 259.347,-345.484 255.848,-351.789 251.374,-346.134 254.873,-339.829"/>
<text text-anchor="start" x="243.802" y="-280.91" font-family="Times New Roman" font-size="10.00" fill="#000000">1</text>
</g>
<!-- cl20&#45;&gt;cl17 -->
<g id="edge19" class="edge"><title>cl20&#45;&gt;cl17</title>
<path fill="none" stroke="#a80036" d="M271.815,-280.327C273.35,-303.084 272.995,-331.787 270.748,-351.789"/>
<polygon fill="none" stroke="#a80036" points="271.787,-280.011 267.275,-274.386 270.731,-268.057 275.244,-273.682 271.787,-280.011"/>
<text text-anchor="start" x="275.913" y="-335.33" font-family="Times New Roman" font-size="10.00" fill="#000000">1</text>
</g>
<!-- cl13&#45;&gt;cl6 -->
<g id="edge12" class="edge"><title>cl13&#45;&gt;cl6</title>
<path fill="none" stroke="#a80036" d="M149.802,-218.146C187.528,-198.946 238.623,-172.942 275.53,-154.159"/>
<polygon fill="none" stroke="#a80036" points="149.741,-218.176 146.208,-224.463 139.047,-223.619 142.58,-217.333 149.741,-218.176"/>
<text text-anchor="start" x="255.54" y="-152.911" font-family="Times New Roman" font-size="10.00" fill="#000000">*</text>
</g>
</g>
</svg>
