<?xml version="1.0" encoding="UTF-8" standalone="no"?>
<!DOCTYPE svg PUBLIC "-//W3C//DTD SVG 1.1//EN"
 "http://www.w3.org/Graphics/SVG/1.1/DTD/svg11.dtd">
<!-- Generated by graphviz version 2.26.3 (20100126.1600)
 -->
<!-- Title: unix Pages: 1 -->
<svg xmlns="http://www.w3.org/2000/svg" xmlns:xlink="http://www.w3.org/1999/xlink" style="width:100%;height:100%;position:absolute;top:0;left:0;">
<g id="graph1" class="graph" transform="scale(1 1) rotate(0) translate(4 528)">
<title>unix</title>
<polygon fill="#ffffff" stroke="#ffffff" points="-4,5 -4,-528 577,-528 577,5 -4,5"/>
<!-- cl15 -->
<g id="node1" class="node"><title>cl15</title>
<polygon fill="#f8f8f8" stroke="#383838" points="374,-400 246,-400 246,-352 374,-352 374,-400"/>
<polygon fill="#f8f8f8" stroke="#f8f8f8" points="246,-352 246,-400 374,-400 374,-352 246,-352"/>
<polygon fill="none" stroke="#383838" points="246,-372 246,-400 374,-400 374,-372 246,-372"/>
<svg x="251.0" y="-395.0"><g transform="translate(0 0) scale(0.7777777777777778 0.7777777777777778)"><ellipse cx="11.0" cy="11.0" fill="#C2C2C2" rx="11.0" ry="11.0" style="stroke: #383838; stroke-width: 1.0;"/><path d="M15.5938,5.4844 L15.5938,9.3906 L15.2813,9.3906 Q14.9063,7.8594 13.9141,7.0469 Q12.9219,6.2344 11.6563,6.2344 Q10.5938,6.2344 9.7188,6.8438 Q8.8438,7.4531 8.4375,8.4219 Q7.9063,9.6719 7.9063,11.2188 Q7.9063,12.7188 8.2891,13.9609 Q8.6719,15.2031 9.4844,15.8438 Q10.2969,16.4844 11.5938,16.4844 Q12.6563,16.4844 13.5391,16.0156 Q14.4219,15.5469 15.4063,14.4063 L15.4063,15.375 Q14.4531,16.375 13.4297,16.8125 Q12.4063,17.25 11.0469,17.25 Q9.2344,17.25 7.8359,16.5313 Q6.4375,15.8125 5.6797,14.4609 Q4.9219,13.1094 4.9219,11.5781 Q4.9219,9.9688 5.7656,8.5234 Q6.6094,7.0781 8.0391,6.2813 Q9.4688,5.4844 11.0781,5.4844 Q12.2656,5.4844 13.5938,6 Q14.3594,6.2969 14.5625,6.2969 Q14.8281,6.2969 15.0234,6.1016 Q15.2188,5.9063 15.2813,5.4844 L15.5938,5.4844 Z "/></g></svg>
<text text-anchor="start" x="272" y="-383.2" font-family="Times New Roman" font-size="12.00" fill="#000000">BackendService </text>
<polygon fill="none" stroke="#383838" points="246,-362 246,-372 374,-372 374,-362 246,-362"/>
<polygon fill="none" stroke="#383838" points="246,-352 246,-362 374,-362 374,-352 246,-352"/>
</g>
<!-- cl13 -->
<g id="node10" class="node"><title>cl13</title>
<polygon fill="#f8f8f8" stroke="#383838" points="350,-268 270,-268 270,-220 350,-220 350,-268"/>
<polygon fill="#f8f8f8" stroke="#f8f8f8" points="269.5,-220 269.5,-268 350.5,-268 350.5,-220 269.5,-220"/>
<polygon fill="none" stroke="#383838" points="270,-240 270,-268 351,-268 351,-240 270,-240"/>
<svg x="275.0" y="-263.0"><g transform="translate(0 0) scale(0.7777777777777778 0.7777777777777778)"><ellipse cx="11.0" cy="11.0" fill="#C2C2C2" rx="11.0" ry="11.0" style="stroke: #383838; stroke-width: 1.0;"/><path d="M15.5938,5.4844 L15.5938,9.3906 L15.2813,9.3906 Q14.9063,7.8594 13.9141,7.0469 Q12.9219,6.2344 11.6563,6.2344 Q10.5938,6.2344 9.7188,6.8438 Q8.8438,7.4531 8.4375,8.4219 Q7.9063,9.6719 7.9063,11.2188 Q7.9063,12.7188 8.2891,13.9609 Q8.6719,15.2031 9.4844,15.8438 Q10.2969,16.4844 11.5938,16.4844 Q12.6563,16.4844 13.5391,16.0156 Q14.4219,15.5469 15.4063,14.4063 L15.4063,15.375 Q14.4531,16.375 13.4297,16.8125 Q12.4063,17.25 11.0469,17.25 Q9.2344,17.25 7.8359,16.5313 Q6.4375,15.8125 5.6797,14.4609 Q4.9219,13.1094 4.9219,11.5781 Q4.9219,9.9688 5.7656,8.5234 Q6.6094,7.0781 8.0391,6.2813 Q9.4688,5.4844 11.0781,5.4844 Q12.2656,5.4844 13.5938,6 Q14.3594,6.2969 14.5625,6.2969 Q14.8281,6.2969 15.0234,6.1016 Q15.2188,5.9063 15.2813,5.4844 L15.5938,5.4844 Z "/></g></svg>
<text text-anchor="start" x="296" y="-251.2" font-family="Times New Roman" font-size="12.00" fill="#000000">Storage </text>
<polygon fill="none" stroke="#383838" points="270,-230 270,-240 351,-240 351,-230 270,-230"/>
<polygon fill="none" stroke="#383838" points="270,-220 270,-230 351,-230 351,-220 270,-220"/>
</g>
<!-- cl15&#45;&gt;cl13 -->
<g id="edge14" class="edge"><title>cl15&#45;&gt;cl13</title>
<path fill="none" stroke="#383838" d="M310,-339.498C310,-316.71 310,-288.015 310,-268.057"/>
<polygon fill="none" stroke="#383838" points="310,-339.789 314,-345.789 310,-351.789 306,-345.789 310,-339.789"/>
<text text-anchor="start" x="299.315" y="-281.631" font-family="Times New Roman" font-size="10.00" fill="#000000">1</text>
</g>
<!-- cl9 -->
<g id="node2" class="node"><title>cl9</title>
<polygon fill="#f8f8f8" stroke="#383838" points="169,-154 69,-154 69,-106 169,-106 169,-154"/>
<polygon fill="#f8f8f8" stroke="#f8f8f8" points="68.5,-106 68.5,-154 169.5,-154 169.5,-106 68.5,-106"/>
<polygon fill="none" stroke="#383838" points="69,-126 69,-154 170,-154 170,-126 69,-126"/>
<svg x="74.0" y="-149.0"><g transform="translate(0 0) scale(0.7777777777777778 0.7777777777777778)"><ellipse cx="11.0" cy="11.0" fill="#C2C2C2" rx="11.0" ry="11.0" style="stroke: #383838; stroke-width: 1.0;"/><path d="M15.5938,5.4844 L15.5938,9.3906 L15.2813,9.3906 Q14.9063,7.8594 13.9141,7.0469 Q12.9219,6.2344 11.6563,6.2344 Q10.5938,6.2344 9.7188,6.8438 Q8.8438,7.4531 8.4375,8.4219 Q7.9063,9.6719 7.9063,11.2188 Q7.9063,12.7188 8.2891,13.9609 Q8.6719,15.2031 9.4844,15.8438 Q10.2969,16.4844 11.5938,16.4844 Q12.6563,16.4844 13.5391,16.0156 Q14.4219,15.5469 15.4063,14.4063 L15.4063,15.375 Q14.4531,16.375 13.4297,16.8125 Q12.4063,17.25 11.0469,17.25 Q9.2344,17.25 7.8359,16.5313 Q6.4375,15.8125 5.6797,14.4609 Q4.9219,13.1094 4.9219,11.5781 Q4.9219,9.9688 5.7656,8.5234 Q6.6094,7.0781 8.0391,6.2813 Q9.4688,5.4844 11.0781,5.4844 Q12.2656,5.4844 13.5938,6 Q14.3594,6.2969 14.5625,6.2969 Q14.8281,6.2969 15.0234,6.1016 Q15.2188,5.9063 15.2813,5.4844 L15.5938,5.4844 Z "/></g></svg>
<text text-anchor="start" x="95" y="-137.2" font-family="Times New Roman" font-size="12.00" fill="#000000">Changeset &#160;</text>
<polygon fill="none" stroke="#383838" points="69,-116 69,-126 170,-126 170,-116 69,-116"/>
<polygon fill="none" stroke="#383838" points="69,-106 69,-116 170,-116 170,-106 69,-106"/>
</g>
<!-- cl8 -->
<g id="node3" class="node"><title>cl8</title>
<polygon fill="#f8f8f8" stroke="#383838" points="251,-48 121,-48 121,-1.42109e-14 251,-0 251,-48"/>
<polygon fill="#f8f8f8" stroke="#f8f8f8" points="121,-0 121,-48 251,-48 251,-0 121,-0"/>
<polygon fill="none" stroke="#383838" points="121,-20 121,-48 251,-48 251,-20 121,-20"/>
<svg x="126.0" y="-43.0"><g transform="translate(0 0) scale(0.7777777777777778 0.7777777777777778)"><ellipse cx="11.0" cy="11.0" fill="#C2C2C2" rx="11.0" ry="11.0" style="stroke: #383838; stroke-width: 1.0;"/><path d="M15.5938,5.4844 L15.5938,9.3906 L15.2813,9.3906 Q14.9063,7.8594 13.9141,7.0469 Q12.9219,6.2344 11.6563,6.2344 Q10.5938,6.2344 9.7188,6.8438 Q8.8438,7.4531 8.4375,8.4219 Q7.9063,9.6719 7.9063,11.2188 Q7.9063,12.7188 8.2891,13.9609 Q8.6719,15.2031 9.4844,15.8438 Q10.2969,16.4844 11.5938,16.4844 Q12.6563,16.4844 13.5391,16.0156 Q14.4219,15.5469 15.4063,14.4063 L15.4063,15.375 Q14.4531,16.375 13.4297,16.8125 Q12.4063,17.25 11.0469,17.25 Q9.2344,17.25 7.8359,16.5313 Q6.4375,15.8125 5.6797,14.4609 Q4.9219,13.1094 4.9219,11.5781 Q4.9219,9.9688 5.7656,8.5234 Q6.6094,7.0781 8.0391,6.2813 Q9.4688,5.4844 11.0781,5.4844 Q12.2656,5.4844 13.5938,6 Q14.3594,6.2969 14.5625,6.2969 Q14.8281,6.2969 15.0234,6.1016 Q15.2188,5.9063 15.2813,5.4844 L15.5938,5.4844 Z "/></g></svg>
<text text-anchor="start" x="147" y="-31.2" font-family="Times New Roman" font-size="12.00" fill="#000000">ChangesetStack </text>
<polygon fill="none" stroke="#383838" points="121,-10 121,-20 251,-20 251,-10 121,-10"/>
<polygon fill="none" stroke="#383838" points="121,-0 121,-10 251,-10 251,-0 121,-0"/>
</g>
<!-- cl9&#45;&gt;cl8 -->
<g id="edge8" class="edge"><title>cl9&#45;&gt;cl8</title>
<path fill="none" stroke="#383838" d="M134.203,-105.947C143.05,-91.9513 154.351,-74.071 164.139,-58.5856"/>
<polygon fill="none" stroke="#383838" points="164.213,-58.4684 164.038,-51.2594 170.625,-48.3248 170.8,-55.5338 164.213,-58.4684"/>
<text text-anchor="start" x="145.508" y="-94.9285" font-family="Times New Roman" font-size="10.00" fill="#000000">*</text>
</g>
<!-- cl4 -->
<g id="node4" class="node"><title>cl4</title>
<polygon fill="#f8f8f8" stroke="#383838" points="122,-268 2.84217e-14,-268 7.10543e-15,-220 122,-220 122,-268"/>
<polygon fill="#f8f8f8" stroke="#f8f8f8" points="0,-220 0,-268 122,-268 122,-220 0,-220"/>
<polygon fill="none" stroke="#383838" points="0,-240 0,-268 122,-268 122,-240 0,-240"/>
<svg x="5.0" y="-263.0"><g transform="translate(0 0) scale(0.7777777777777778 0.7777777777777778)"><ellipse cx="11.0" cy="11.0" fill="#C2C2C2" rx="11.0" ry="11.0" style="stroke: #383838; stroke-width: 1.0;"/><path d="M15.5938,5.4844 L15.5938,9.3906 L15.2813,9.3906 Q14.9063,7.8594 13.9141,7.0469 Q12.9219,6.2344 11.6563,6.2344 Q10.5938,6.2344 9.7188,6.8438 Q8.8438,7.4531 8.4375,8.4219 Q7.9063,9.6719 7.9063,11.2188 Q7.9063,12.7188 8.2891,13.9609 Q8.6719,15.2031 9.4844,15.8438 Q10.2969,16.4844 11.5938,16.4844 Q12.6563,16.4844 13.5391,16.0156 Q14.4219,15.5469 15.4063,14.4063 L15.4063,15.375 Q14.4531,16.375 13.4297,16.8125 Q12.4063,17.25 11.0469,17.25 Q9.2344,17.25 7.8359,16.5313 Q6.4375,15.8125 5.6797,14.4609 Q4.9219,13.1094 4.9219,11.5781 Q4.9219,9.9688 5.7656,8.5234 Q6.6094,7.0781 8.0391,6.2813 Q9.4688,5.4844 11.0781,5.4844 Q12.2656,5.4844 13.5938,6 Q14.3594,6.2969 14.5625,6.2969 Q14.8281,6.2969 15.0234,6.1016 Q15.2188,5.9063 15.2813,5.4844 L15.5938,5.4844 Z "/></g></svg>
<text text-anchor="start" x="26" y="-251.2" font-family="Times New Roman" font-size="12.00" fill="#000000">CollectionNode </text>
<polygon fill="none" stroke="#383838" points="0,-230 0,-240 122,-240 122,-230 0,-230"/>
<polygon fill="none" stroke="#383838" points="0,-220 0,-230 122,-230 122,-220 0,-220"/>
</g>
<!-- cl6 -->
<g id="node5" class="node"><title>cl6</title>
<polygon fill="#f8f8f8" stroke="#383838" points="312,-154 194,-154 194,-106 312,-106 312,-154"/>
<polygon fill="#f8f8f8" stroke="#f8f8f8" points="193.5,-106 193.5,-154 312.5,-154 312.5,-106 193.5,-106"/>
<polygon fill="none" stroke="#383838" points="194,-126 194,-154 313,-154 313,-126 194,-126"/>
<svg x="199.0" y="-149.0"><g transform="translate(0 0) scale(0.7777777777777778 0.7777777777777778)"><ellipse cx="11.0" cy="11.0" fill="#C2C2C2" rx="11.0" ry="11.0" style="stroke: #383838; stroke-width: 1.0;"/><path d="M15.5938,5.4844 L15.5938,9.3906 L15.2813,9.3906 Q14.9063,7.8594 13.9141,7.0469 Q12.9219,6.2344 11.6563,6.2344 Q10.5938,6.2344 9.7188,6.8438 Q8.8438,7.4531 8.4375,8.4219 Q7.9063,9.6719 7.9063,11.2188 Q7.9063,12.7188 8.2891,13.9609 Q8.6719,15.2031 9.4844,15.8438 Q10.2969,16.4844 11.5938,16.4844 Q12.6563,16.4844 13.5391,16.0156 Q14.4219,15.5469 15.4063,14.4063 L15.4063,15.375 Q14.4531,16.375 13.4297,16.8125 Q12.4063,17.25 11.0469,17.25 Q9.2344,17.25 7.8359,16.5313 Q6.4375,15.8125 5.6797,14.4609 Q4.9219,13.1094 4.9219,11.5781 Q4.9219,9.9688 5.7656,8.5234 Q6.6094,7.0781 8.0391,6.2813 Q9.4688,5.4844 11.0781,5.4844 Q12.2656,5.4844 13.5938,6 Q14.3594,6.2969 14.5625,6.2969 Q14.8281,6.2969 15.0234,6.1016 Q15.2188,5.9063 15.2813,5.4844 L15.5938,5.4844 Z "/></g></svg>
<text text-anchor="start" x="220" y="-137.2" font-family="Times New Roman" font-size="12.00" fill="#000000">HivemindNode </text>
<polygon fill="none" stroke="#383838" points="194,-116 194,-126 313,-126 313,-116 194,-116"/>
<polygon fill="none" stroke="#383838" points="194,-106 194,-116 313,-116 313,-106 194,-106"/>
</g>
<!-- cl6&#45;&gt;cl8 -->
<g id="edge10" class="edge"><title>cl6&#45;&gt;cl8</title>
<path fill="none" stroke="#383838" d="M231.329,-95.7142C221.561,-80.2601 210.253,-62.3703 201.375,-48.3248"/>
<polygon fill="#383838" stroke="#383838" points="231.385,-95.8034 237.972,-98.738 237.797,-105.947 231.21,-103.012 231.385,-95.8034"/>
<text text-anchor="start" x="200.034" y="-63.3538" font-family="Times New Roman" font-size="10.00" fill="#000000">1</text>
</g>
<!-- cl2 -->
<g id="node6" class="node"><title>cl2</title>
<polygon fill="#f8f8f8" stroke="#383838" points="245,-276 147,-276 147,-212 245,-212 245,-276"/>
<polygon fill="#f8f8f8" stroke="#f8f8f8" points="147,-212 147,-276 245,-276 245,-212 147,-212"/>
<polygon fill="none" stroke="#383838" points="147,-242 147,-276 245,-276 245,-242 147,-242"/>
<svg x="153.0" y="-270.5"><g transform="translate(0 0) scale(1.0 1.0)"><ellipse cx="11.0" cy="11.0" fill="#C2C2C2" rx="11.0" ry="11.0" style="stroke: #383838; stroke-width: 1.0;"/><path d="M15.5938,5.4844 L15.5938,9.3906 L15.2813,9.3906 Q14.9063,7.8594 13.9141,7.0469 Q12.9219,6.2344 11.6563,6.2344 Q10.5938,6.2344 9.7188,6.8438 Q8.8438,7.4531 8.4375,8.4219 Q7.9063,9.6719 7.9063,11.2188 Q7.9063,12.7188 8.2891,13.9609 Q8.6719,15.2031 9.4844,15.8438 Q10.2969,16.4844 11.5938,16.4844 Q12.6563,16.4844 13.5391,16.0156 Q14.4219,15.5469 15.4063,14.4063 L15.4063,15.375 Q14.4531,16.375 13.4297,16.8125 Q12.4063,17.25 11.0469,17.25 Q9.2344,17.25 7.8359,16.5313 Q6.4375,15.8125 5.6797,14.4609 Q4.9219,13.1094 4.9219,11.5781 Q4.9219,9.9688 5.7656,8.5234 Q6.6094,7.0781 8.0391,6.2813 Q9.4688,5.4844 11.0781,5.4844 Q12.2656,5.4844 13.5938,6 Q14.3594,6.2969 14.5625,6.2969 Q14.8281,6.2969 15.0234,6.1016 Q15.2188,5.9063 15.2813,5.4844 L15.5938,5.4844 Z "/></g></svg>
<text text-anchor="start" x="180" y="-256.2" font-family="Times New Roman" font-size="12.00" fill="#000000">LeafNode </text>
<polygon fill="none" stroke="#383838" points="147,-222 147,-242 245,-242 245,-222 147,-222"/>
<svg x="160.0" y="-237.0"><g transform="translate(0 0) scale(1.0 1.0)"><ellipse cx="5.0" cy="5.0" fill="none" rx="3.0" ry="3.0" style="stroke: #545454; stroke-width: 1.0;"/></g></svg>
<text text-anchor="start" x="178" y="-229.667" font-family="Times New Roman" font-size="10.00" fill="#000000">items: list</text>
<polygon fill="none" stroke="#383838" points="147,-212 147,-222 245,-222 245,-212 147,-212"/>
</g>
<!-- cl2&#45;&gt;cl6 -->
<g id="edge6" class="edge"><title>cl2&#45;&gt;cl6</title>
<path fill="none" stroke="#383838" d="M221.084,-193.831C227.959,-180.081 235.103,-165.793 240.885,-154.23"/>
<polygon fill="none" stroke="#383838" points="214.713,-190.922 212.029,-211.941 227.235,-197.183 214.713,-190.922"/>
</g>
<!-- cl1 -->
<g id="node7" class="node"><title>cl1</title>
<polygon fill="#f8f8f8" stroke="#383838" points="168,-418 60,-418 60,-334 168,-334 168,-418"/>
<polygon fill="#f8f8f8" stroke="#f8f8f8" points="60,-334 60,-418 168,-418 168,-334 60,-334"/>
<polygon fill="none" stroke="#383838" points="60,-384 60,-418 168,-418 168,-384 60,-384"/>
<svg x="84.5" y="-412.5"><g transform="translate(0 0) scale(1.0 1.0)"><ellipse cx="11.0" cy="11.0" fill="#CDCDCD" rx="11.0" ry="11.0" style="stroke: #383838; stroke-width: 1.0;"/><path d="M12.5781,12.0469 L8.5938,12.0469 L8.125,13.1406 Q7.8906,13.6875 7.8906,14.0469 Q7.8906,14.5156 8.2656,14.75 Q8.5,14.875 9.375,14.9375 L9.375,15.25 L5.6406,15.25 L5.6406,14.9375 Q6.2344,14.8438 6.625,14.4375 Q7.0156,14.0313 7.5938,12.75 L11.625,3.7656 L11.7813,3.7656 L15.8281,12.9844 Q16.4219,14.2969 16.7969,14.6406 Q17.0781,14.9063 17.5938,14.9375 L17.5938,15.25 L12.1406,15.25 L12.1406,14.9375 L12.3594,14.9375 Q13.0156,14.9375 13.2813,14.7656 Q13.4688,14.625 13.4688,14.375 Q13.4688,14.2344 13.4219,14.0781 Q13.4063,14 13.1719,13.4531 L12.5781,12.0469 Z M12.2969,11.4375 L10.6094,7.5625 L8.8906,11.4375 L12.2969,11.4375 Z "/></g></svg>
<text text-anchor="start" x="112.5" y="-398.2" font-family="Times New Roman italic" font-size="12.00" fill="#000000">Node </text>
<polygon fill="none" stroke="#383838" points="60,-344 60,-384 168,-384 168,-344 60,-344"/>
<svg x="65.5" y="-379.0"><g transform="translate(0 0) scale(1.0 1.0)"><ellipse cx="5.0" cy="5.0" fill="none" rx="3.0" ry="3.0" style="stroke: #545454; stroke-width: 1.0;"/></g></svg>
<text text-anchor="start" x="76" y="-371.667" font-family="Times New Roman" font-size="10.00" fill="#000000">config: dict</text>
<svg x="65.5" y="-369.0"><g transform="translate(0 0) scale(1.0 1.0)"><ellipse cx="5.0" cy="5.0" fill="none" rx="3.0" ry="3.0" style="stroke: #545454; stroke-width: 1.0;"/></g></svg>
<text text-anchor="start" x="76" y="-361.667" font-family="Times New Roman" font-size="10.00" fill="#000000">subscriptions: dict</text>
<svg x="65.5" y="-359.0"><g transform="translate(0 0) scale(1.0 1.0)"><ellipse cx="5.0" cy="5.0" fill="none" rx="3.0" ry="3.0" style="stroke: #545454; stroke-width: 1.0;"/></g></svg>
<text text-anchor="start" x="76" y="-351.667" font-family="Times New Roman" font-size="10.00" fill="#000000">affiliations: dict</text>
<polygon fill="none" stroke="#383838" points="60,-334 60,-344 168,-344 168,-334 60,-334"/>
</g>
<!-- cl1&#45;&gt;cl4 -->
<g id="edge4" class="edge"><title>cl1&#45;&gt;cl4</title>
<path fill="none" stroke="#383838" d="M89.5531,-315.113C82.8595,-298.443 75.9902,-281.334 70.6671,-268.077"/>
<polygon fill="none" stroke="#383838" points="83.1367,-317.92 97.0847,-333.871 96.1286,-312.703 83.1367,-317.92"/>
</g>
<!-- cl1&#45;&gt;cl2 -->
<g id="edge2" class="edge"><title>cl1&#45;&gt;cl2</title>
<path fill="none" stroke="#383838" d="M150.891,-316.614C159.552,-302.672 168.46,-288.332 176.049,-276.117"/>
<polygon fill="none" stroke="#383838" points="144.778,-313.189 140.171,-333.871 156.671,-320.576 144.778,-313.189"/>
</g>
<!-- cl17 -->
<g id="node8" class="node"><title>cl17</title>
<polygon fill="#f8f8f8" stroke="#383838" points="572,-524 352,-524 352,-476 572,-476 572,-524"/>
<polygon fill="#f8f8f8" stroke="#f8f8f8" points="352,-476 352,-524 572,-524 572,-476 352,-476"/>
<polygon fill="none" stroke="#383838" points="352,-496 352,-524 572,-524 572,-496 352,-496"/>
<svg x="357.0" y="-519.0"><g transform="translate(0 0) scale(0.7777777777777778 0.7777777777777778)"><ellipse cx="11.0" cy="11.0" fill="#C2C2C2" rx="11.0" ry="11.0" style="stroke: #383838; stroke-width: 1.0;"/><path d="M15.5938,5.4844 L15.5938,9.3906 L15.2813,9.3906 Q14.9063,7.8594 13.9141,7.0469 Q12.9219,6.2344 11.6563,6.2344 Q10.5938,6.2344 9.7188,6.8438 Q8.8438,7.4531 8.4375,8.4219 Q7.9063,9.6719 7.9063,11.2188 Q7.9063,12.7188 8.2891,13.9609 Q8.6719,15.2031 9.4844,15.8438 Q10.2969,16.4844 11.5938,16.4844 Q12.6563,16.4844 13.5391,16.0156 Q14.4219,15.5469 15.4063,14.4063 L15.4063,15.375 Q14.4531,16.375 13.4297,16.8125 Q12.4063,17.25 11.0469,17.25 Q9.2344,17.25 7.8359,16.5313 Q6.4375,15.8125 5.6797,14.4609 Q4.9219,13.1094 4.9219,11.5781 Q4.9219,9.9688 5.7656,8.5234 Q6.6094,7.0781 8.0391,6.2813 Q9.4688,5.4844 11.0781,5.4844 Q12.2656,5.4844 13.5938,6 Q14.3594,6.2969 14.5625,6.2969 Q14.8281,6.2969 15.0234,6.1016 Q15.2188,5.9063 15.2813,5.4844 L15.5938,5.4844 Z "/></g></svg>
<text text-anchor="start" x="378" y="-507.2" font-family="Times New Roman" font-size="12.00" fill="#000000">PubSubResourceFromBackend &#160;</text>
<polygon fill="none" stroke="#383838" points="352,-486 352,-496 572,-496 572,-486 352,-486"/>
<polygon fill="none" stroke="#383838" points="352,-476 352,-486 572,-486 572,-476 352,-476"/>
</g>
<!-- cl17&#45;&gt;cl15 -->
<g id="edge16" class="edge"><title>cl17&#45;&gt;cl15</title>
<path fill="none" stroke="#383838" d="M422.788,-468.012C396.828,-446.834 363.321,-419.499 339.593,-400.142"/>
<polygon fill="#383838" stroke="#383838" points="423.034,-468.212 430.211,-468.905 432.332,-475.797 425.154,-475.104 423.034,-468.212"/>
<text text-anchor="start" x="343.49" y="-413.615" font-family="Times New Roman" font-size="10.00" fill="#000000">1</text>
</g>
<!-- cl19 -->
<g id="node9" class="node"><title>cl19</title>
<polygon fill="#f8f8f8" stroke="#383838" points="525,-400 399,-400 399,-352 525,-352 525,-400"/>
<polygon fill="#f8f8f8" stroke="#f8f8f8" points="399,-352 399,-400 525,-400 525,-352 399,-352"/>
<polygon fill="none" stroke="#383838" points="399,-372 399,-400 525,-400 525,-372 399,-372"/>
<svg x="404.0" y="-395.0"><g transform="translate(0 0) scale(0.7777777777777778 0.7777777777777778)"><ellipse cx="11.0" cy="11.0" fill="#C2C2C2" rx="11.0" ry="11.0" style="stroke: #383838; stroke-width: 1.0;"/><path d="M15.5938,5.4844 L15.5938,9.3906 L15.2813,9.3906 Q14.9063,7.8594 13.9141,7.0469 Q12.9219,6.2344 11.6563,6.2344 Q10.5938,6.2344 9.7188,6.8438 Q8.8438,7.4531 8.4375,8.4219 Q7.9063,9.6719 7.9063,11.2188 Q7.9063,12.7188 8.2891,13.9609 Q8.6719,15.2031 9.4844,15.8438 Q10.2969,16.4844 11.5938,16.4844 Q12.6563,16.4844 13.5391,16.0156 Q14.4219,15.5469 15.4063,14.4063 L15.4063,15.375 Q14.4531,16.375 13.4297,16.8125 Q12.4063,17.25 11.0469,17.25 Q9.2344,17.25 7.8359,16.5313 Q6.4375,15.8125 5.6797,14.4609 Q4.9219,13.1094 4.9219,11.5781 Q4.9219,9.9688 5.7656,8.5234 Q6.6094,7.0781 8.0391,6.2813 Q9.4688,5.4844 11.0781,5.4844 Q12.2656,5.4844 13.5938,6 Q14.3594,6.2969 14.5625,6.2969 Q14.8281,6.2969 15.0234,6.1016 Q15.2188,5.9063 15.2813,5.4844 L15.5938,5.4844 Z "/></g></svg>
<text text-anchor="start" x="425" y="-383.2" font-family="Times New Roman" font-size="12.00" fill="#000000">PubSubService &#160;</text>
<polygon fill="none" stroke="#383838" points="399,-362 399,-372 525,-372 525,-362 399,-362"/>
<polygon fill="none" stroke="#383838" points="399,-352 399,-362 525,-362 525,-352 399,-352"/>
</g>
<!-- cl17&#45;&gt;cl19 -->
<g id="edge20" class="edge"><title>cl17&#45;&gt;cl19</title>
<path fill="none" stroke="#383838" d="M453.728,-463.737C452.501,-443.256 452.825,-418.22 454.698,-400.142"/>
<polygon fill="#383838" stroke="#383838" points="453.736,-463.835 458.201,-469.498 454.692,-475.797 450.227,-470.135 453.736,-463.835"/>
<text text-anchor="start" x="442.637" y="-412.995" font-family="Times New Roman" font-size="10.00" fill="#000000">1</text>
</g>
<!-- cl19&#45;&gt;cl17 -->
<g id="edge18" class="edge"><title>cl19&#45;&gt;cl17</title>
<path fill="none" stroke="#383838" d="M470.957,-412.194C472.289,-432.665 471.943,-457.703 469.917,-475.797"/>
<polygon fill="none" stroke="#383838" points="470.948,-412.097 466.444,-406.465 469.91,-400.142 474.414,-405.773 470.948,-412.097"/>
<text text-anchor="start" x="475.086" y="-459.34" font-family="Times New Roman" font-size="10.00" fill="#000000">1</text>
</g>
<!-- cl13&#45;&gt;cl6 -->
<g id="edge12" class="edge"><title>cl13&#45;&gt;cl6</title>
<path fill="none" stroke="#383838" d="M292.498,-208.995C283.611,-191.222 273.04,-170.08 265.071,-154.142"/>
<polygon fill="none" stroke="#383838" points="292.545,-209.09 298.806,-212.668 297.912,-219.824 291.651,-216.246 292.545,-209.09"/>
<text text-anchor="start" x="262.535" y="-169.302" font-family="Times New Roman" font-size="10.00" fill="#000000">*</text>
</g>
</g>
</svg>
