<?xml version="1.0" encoding="UTF-8" standalone="no"?>
<!DOCTYPE svg PUBLIC "-//W3C//DTD SVG 1.1//EN"
 "http://www.w3.org/Graphics/SVG/1.1/DTD/svg11.dtd">
<!-- Generated by graphviz version 2.26.3 (20100126.1600)
 -->
<!-- Title: unix Pages: 1 -->
<svg xmlns="http://www.w3.org/2000/svg" xmlns:xlink="http://www.w3.org/1999/xlink" style="width:100%;height:100%;position:absolute;top:0;left:0;">
<g id="graph1" class="graph" transform="scale(1 1) rotate(0) translate(4 334)">
<title>unix</title>
<polygon fill="#ffffff" stroke="#ffffff" points="-4,5 -4,-334 223,-334 223,5 -4,5"/>
<!-- cl1 -->
<g id="node1" class="node"><title>cl1</title>
<polygon fill="#f8f8f8" stroke="#383838" points="204,-330 58,-330 58,-282 204,-282 204,-330"/>
<polygon fill="#f8f8f8" stroke="#f8f8f8" points="58,-282 58,-330 204,-330 204,-282 58,-282"/>
<polygon fill="none" stroke="#383838" points="58,-302 58,-330 204,-330 204,-302 58,-302"/>
<svg x="63.0" y="-325.0"><g transform="translate(0 0) scale(0.7777777777777778 0.7777777777777778)"><ellipse cx="11.0" cy="11.0" fill="#C2C2C2" rx="11.0" ry="11.0" style="stroke: #383838; stroke-width: 1.0;"/><path d="M15.5938,5.4844 L15.5938,9.3906 L15.2813,9.3906 Q14.9063,7.8594 13.9141,7.0469 Q12.9219,6.2344 11.6563,6.2344 Q10.5938,6.2344 9.7188,6.8438 Q8.8438,7.4531 8.4375,8.4219 Q7.9063,9.6719 7.9063,11.2188 Q7.9063,12.7188 8.2891,13.9609 Q8.6719,15.2031 9.4844,15.8438 Q10.2969,16.4844 11.5938,16.4844 Q12.6563,16.4844 13.5391,16.0156 Q14.4219,15.5469 15.4063,14.4063 L15.4063,15.375 Q14.4531,16.375 13.4297,16.8125 Q12.4063,17.25 11.0469,17.25 Q9.2344,17.25 7.8359,16.5313 Q6.4375,15.8125 5.6797,14.4609 Q4.9219,13.1094 4.9219,11.5781 Q4.9219,9.9688 5.7656,8.5234 Q6.6094,7.0781 8.0391,6.2813 Q9.4688,5.4844 11.0781,5.4844 Q12.2656,5.4844 13.5938,6 Q14.3594,6.2969 14.5625,6.2969 Q14.8281,6.2969 15.0234,6.1016 Q15.2188,5.9063 15.2813,5.4844 L15.5938,5.4844 Z "/></g></svg>
<text text-anchor="start" x="84" y="-313.2" font-family="Times New Roman" font-size="12.00" fill="#000000">NetworkController &#160;</text>
<polygon fill="none" stroke="#383838" points="58,-292 58,-302 204,-302 204,-292 58,-292"/>
<polygon fill="none" stroke="#383838" points="58,-282 58,-292 204,-292 204,-282 58,-282"/>
</g>
<!-- cl2 -->
<g id="node2" class="node"><title>cl2</title>
<polygon fill="#f8f8f8" stroke="#383838" points="114,-212 2.84217e-14,-212 7.10543e-15,-154 114,-154 114,-212"/>
<polygon fill="#f8f8f8" stroke="#f8f8f8" points="0,-154 0,-212 114,-212 114,-154 0,-154"/>
<polygon fill="none" stroke="#383838" points="0,-184 0,-212 114,-212 114,-184 0,-184"/>
<svg x="5.0" y="-207.0"><g transform="translate(0 0) scale(0.7777777777777778 0.7777777777777778)"><ellipse cx="11.0" cy="11.0" fill="#C2C2C2" rx="11.0" ry="11.0" style="stroke: #383838; stroke-width: 1.0;"/><path d="M15.5938,5.4844 L15.5938,9.3906 L15.2813,9.3906 Q14.9063,7.8594 13.9141,7.0469 Q12.9219,6.2344 11.6563,6.2344 Q10.5938,6.2344 9.7188,6.8438 Q8.8438,7.4531 8.4375,8.4219 Q7.9063,9.6719 7.9063,11.2188 Q7.9063,12.7188 8.2891,13.9609 Q8.6719,15.2031 9.4844,15.8438 Q10.2969,16.4844 11.5938,16.4844 Q12.6563,16.4844 13.5391,16.0156 Q14.4219,15.5469 15.4063,14.4063 L15.4063,15.375 Q14.4531,16.375 13.4297,16.8125 Q12.4063,17.25 11.0469,17.25 Q9.2344,17.25 7.8359,16.5313 Q6.4375,15.8125 5.6797,14.4609 Q4.9219,13.1094 4.9219,11.5781 Q4.9219,9.9688 5.7656,8.5234 Q6.6094,7.0781 8.0391,6.2813 Q9.4688,5.4844 11.0781,5.4844 Q12.2656,5.4844 13.5938,6 Q14.3594,6.2969 14.5625,6.2969 Q14.8281,6.2969 15.0234,6.1016 Q15.2188,5.9063 15.2813,5.4844 L15.5938,5.4844 Z "/></g></svg>
<text text-anchor="start" x="26" y="-195.2" font-family="Times New Roman" font-size="12.00" fill="#000000">PingManager &#160;</text>
<polygon fill="none" stroke="#383838" points="0,-164 0,-184 114,-184 114,-164 0,-164"/>
<svg x="15.0" y="-179.0"><g transform="translate(0 0) scale(1.0 1.0)"><ellipse cx="5.0" cy="5.0" fill="none" rx="3.0" ry="3.0" style="stroke: #545454; stroke-width: 1.0;"/></g></svg>
<text text-anchor="start" x="35" y="-171.667" font-family="Times New Roman" font-size="10.00" fill="#000000">pinger: dict</text>
<polygon fill="none" stroke="#383838" points="0,-154 0,-164 114,-164 114,-154 0,-154"/>
</g>
<!-- cl1&#45;&gt;cl2 -->
<g id="edge2" class="edge"><title>cl1&#45;&gt;cl2</title>
<path fill="none" stroke="#383838" d="M110.051,-271.334C106.365,-265.227 102.568,-258.928 99,-253 90.9607,-239.643 82.0756,-224.841 74.5559,-212.301"/>
<polygon fill="none" stroke="#383838" points="110.288,-271.726 116.813,-274.795 116.49,-281.999 109.964,-278.93 110.288,-271.726"/>
<text text-anchor="start" x="99.5" y="-245.167" font-family="Times New Roman" font-size="10.00" fill="#000000">Создаёт</text>
</g>
<!-- cl4 -->
<g id="node3" class="node"><title>cl4</title>
<polygon fill="#f8f8f8" stroke="#383838" points="163,-84 75,-84 75,-2.13163e-14 163,-0 163,-84"/>
<polygon fill="#f8f8f8" stroke="#f8f8f8" points="74.5,-0 74.5,-84 163.5,-84 163.5,-0 74.5,-0"/>
<polygon fill="none" stroke="#383838" points="75,-50 75,-84 164,-84 164,-50 75,-50"/>
<svg x="86.5" y="-78.5"><g transform="translate(0 0) scale(1.0 1.0)"><ellipse cx="11.0" cy="11.0" fill="#C2C2C2" rx="11.0" ry="11.0" style="stroke: #383838; stroke-width: 1.0;"/><path d="M15.5938,5.4844 L15.5938,9.3906 L15.2813,9.3906 Q14.9063,7.8594 13.9141,7.0469 Q12.9219,6.2344 11.6563,6.2344 Q10.5938,6.2344 9.7188,6.8438 Q8.8438,7.4531 8.4375,8.4219 Q7.9063,9.6719 7.9063,11.2188 Q7.9063,12.7188 8.2891,13.9609 Q8.6719,15.2031 9.4844,15.8438 Q10.2969,16.4844 11.5938,16.4844 Q12.6563,16.4844 13.5391,16.0156 Q14.4219,15.5469 15.4063,14.4063 L15.4063,15.375 Q14.4531,16.375 13.4297,16.8125 Q12.4063,17.25 11.0469,17.25 Q9.2344,17.25 7.8359,16.5313 Q6.4375,15.8125 5.6797,14.4609 Q4.9219,13.1094 4.9219,11.5781 Q4.9219,9.9688 5.7656,8.5234 Q6.6094,7.0781 8.0391,6.2813 Q9.4688,5.4844 11.0781,5.4844 Q12.2656,5.4844 13.5938,6 Q14.3594,6.2969 14.5625,6.2969 Q14.8281,6.2969 15.0234,6.1016 Q15.2188,5.9063 15.2813,5.4844 L15.5938,5.4844 Z "/></g></svg>
<text text-anchor="start" x="114" y="-64.2" font-family="Times New Roman" font-size="12.00" fill="#000000">Pinger &#160;</text>
<polygon fill="none" stroke="#383838" points="75,-10 75,-50 164,-50 164,-10 75,-10"/>
<svg x="80.5" y="-45.0"><g transform="translate(0 0) scale(1.0 1.0)"><rect fill="none" height="6.0" style="stroke: #595959; stroke-width: 1.0;" width="6.0" x="2.0" y="2.0"/></g></svg>
<text text-anchor="start" x="91" y="-37.6667" font-family="Times New Roman" font-size="10.00" fill="#000000">entity: JID</text>
<svg x="80.5" y="-35.0"><g transform="translate(0 0) scale(1.0 1.0)"><rect fill="none" height="6.0" style="stroke: #595959; stroke-width: 1.0;" width="6.0" x="2.0" y="2.0"/></g></svg>
<text text-anchor="start" x="91" y="-27.6667" font-family="Times New Roman" font-size="10.00" fill="#000000">interval: int</text>
<svg x="80.5" y="-25.0"><g transform="translate(0 0) scale(1.0 1.0)"><rect fill="none" height="6.0" style="stroke: #595959; stroke-width: 1.0;" width="6.0" x="2.0" y="2.0"/></g></svg>
<text text-anchor="start" x="91" y="-17.6667" font-family="Times New Roman" font-size="10.00" fill="#000000">maxCount: int</text>
<polygon fill="none" stroke="#383838" points="75,-0 75,-10 164,-10 164,-0 75,-0"/>
</g>
<!-- cl2&#45;&gt;cl4 -->
<g id="edge4" class="edge"><title>cl2&#45;&gt;cl4</title>
<path fill="none" stroke="#383838" d="M74.7785,-142.568C82.8437,-124.226 92.3782,-102.543 100.525,-84.0153"/>
<polygon fill="none" stroke="#383838" points="74.6768,-142.8 75.9232,-149.902 69.8464,-153.785 68.5999,-146.682 74.6768,-142.8"/>
<text text-anchor="start" x="87.5" y="-117.167" font-family="Times New Roman" font-size="10.00" fill="#000000">Управляет</text>
<text text-anchor="start" x="84.7467" y="-93.394" font-family="Times New Roman" font-size="10.00" fill="#000000">*</text>
</g>
<!-- cl4&#45;&gt;cl1 -->
<g id="edge6" class="edge"><title>cl4&#45;&gt;cl1</title>
<path fill="none" stroke="#383838" stroke-dasharray="5,2" d="M138.558,-84.0259C142.057,-93.3708 145.169,-103.367 147,-113 158.618,-174.128 156.089,-191.445 147,-253 146.069,-259.302 144.548,-265.894 142.805,-272.203"/>
<polygon fill="#383838" stroke="#383838" points="139.934,-281.801 138.488,-270.931 141.367,-277.011 142.799,-272.221 142.799,-272.221 142.799,-272.221 141.367,-277.011 147.111,-273.51 139.934,-281.801 139.934,-281.801"/>
<text text-anchor="start" x="154.5" y="-181.167" font-family="Times New Roman" font-size="10.00" fill="#000000">Уведомляет</text>
</g>
</g>
</svg>
